<?xml version="1.0" encoding="utf-8"?>
<!-- Generator: Adobe Illustrator 16.0.0, SVG Export Plug-In . SVG Version: 6.00 Build 0)  -->
<!DOCTYPE svg PUBLIC "-//W3C//DTD SVG 1.1//EN" "http://www.w3.org/Graphics/SVG/1.1/DTD/svg11.dtd">
<svg version="1.1" id="Layer_1" xmlns="http://www.w3.org/2000/svg" xmlns:xlink="http://www.w3.org/1999/xlink" x="0px" y="0px"
	 width="285px" height="85px" viewBox="0 -0.337 285 85" enable-background="new 0 -0.337 285 85" xml:space="preserve">
<path fill="#E61E26" d="M98.639,60.613H85.178l-2.064,3.756h-7.056l11.619-20.693h8.555l11.374,20.693h-7L98.639,60.613z
	 M96.329,56.333l-4.436-8.189l-4.498,8.189H96.329z"/>
<polygon fill="#E61E26" points="118.452,43.676 118.452,59.218 132.566,59.218 132.566,64.369 112.149,64.369 112.149,43.676 "/>
<polygon fill="#E61E26" points="177.975,43.676 177.975,64.369 172.052,64.369 172.052,48.608 162.98,64.369 157.952,64.369 
	149.008,48.608 149.008,64.369 143.084,64.369 143.084,43.676 153.051,43.676 160.607,57.386 168.07,43.676 "/>
<path fill="#E61E26" d="M205.085,60.613h-13.479l-2.062,3.756h-7.069l11.635-20.693h8.567l11.382,20.693h-7.004L205.085,60.613z
	 M202.773,56.333l-4.442-8.189l-4.505,8.189H202.773z"/>
<polygon fill="#E61E26" points="246.748,43.676 246.748,64.369 236.705,64.369 224.234,48.827 224.234,64.369 218.27,64.369 
	218.27,43.676 228.309,43.676 240.777,59.188 240.777,43.676 "/>
<path fill="#E61E26" d="M273.554,60.613h-13.36l-2.039,3.756h-7.01l11.529-20.693h8.491l11.278,20.693h-6.939L273.554,60.613z
	 M271.255,56.333l-4.396-8.189l-4.467,8.189H271.255z"/>
<polygon fill="#E61E26" points="50.596,69.895 50.596,77.938 57.547,77.938 57.547,80.605 47.196,80.605 47.196,69.895 "/>
<polygon fill="#E61E26" points="59.034,80.605 59.034,69.895 70.739,69.895 70.739,72.305 62.366,72.305 62.366,74.166 
	70.139,74.166 70.139,76.286 62.366,76.286 62.366,78.197 70.739,78.197 70.739,80.605 "/>
<path fill="#E61E26" d="M83.458,78.664h-6.826l-1.049,1.941h-3.581l5.895-10.711h4.342l5.768,10.711h-3.549L83.458,78.664z
	 M82.287,76.445l-2.25-4.24l-2.282,4.24H82.287z"/>
<path fill="#E61E26" d="M98.745,73.17c-0.009-0.246-0.05-0.441-0.125-0.584c-0.073-0.145-0.2-0.255-0.381-0.32
	c-0.181-0.068-0.419-0.115-0.715-0.138c-0.295-0.021-0.675-0.034-1.141-0.034h-0.202c-0.054,0-0.119,0.01-0.202,0.018
	c-0.676,0.031-1.239,0.048-1.697,0.048c-0.452,0-0.823,0.028-1.101,0.075c-0.282,0.047-0.483,0.136-0.607,0.265
	c-0.125,0.127-0.187,0.343-0.187,0.644c0,0.265,0.092,0.467,0.281,0.602c0.187,0.136,0.445,0.205,0.772,0.214
	c0.471,0.013,0.914,0.024,1.333,0.032c0.42,0.012,0.813,0.016,1.176,0.016c0.216,0,0.439-0.003,0.675-0.006
	c0.231-0.007,0.45-0.01,0.66-0.01c0.862,0,1.604,0.025,2.238,0.072c0.632,0.047,1.155,0.18,1.561,0.396
	c0.409,0.211,0.712,0.534,0.91,0.98c0.199,0.436,0.294,1.054,0.294,1.844c0,0.557-0.049,1.027-0.155,1.412
	c-0.1,0.387-0.266,0.705-0.489,0.955c-0.224,0.254-0.505,0.449-0.846,0.588c-0.341,0.14-0.749,0.236-1.226,0.287
	c-0.283,0.037-0.822,0.068-1.619,0.115c-0.8,0.045-1.818,0.063-3.061,0.063c-1.222,0-2.22-0.04-2.993-0.114
	c-0.772-0.075-1.334-0.237-1.688-0.495c-0.249-0.185-0.433-0.379-0.55-0.586c-0.121-0.209-0.201-0.432-0.249-0.668
	c-0.047-0.234-0.071-0.488-0.071-0.761v-0.89h3.126v0.365c0,0.131,0.025,0.244,0.079,0.346c0.049,0.101,0.144,0.192,0.28,0.271
	c0.131,0.08,0.341,0.138,0.615,0.154c0.141,0.012,0.39,0.021,0.757,0.03c0.37,0.011,0.831,0.017,1.392,0.017
	c0.726,0,1.319-0.006,1.78-0.017c0.461-0.01,0.823-0.047,1.08-0.111c0.259-0.064,0.435-0.16,0.531-0.285
	c0.093-0.132,0.139-0.316,0.139-0.563c0-0.24-0.046-0.424-0.139-0.559c-0.096-0.131-0.231-0.23-0.406-0.288
	c-0.176-0.06-0.387-0.092-0.63-0.104c-0.245-0.006-0.511-0.016-0.8-0.016c-1.017-0.009-1.917-0.014-2.705-0.008
	c-0.786,0.008-1.47-0.015-2.052-0.056c-0.581-0.044-1.071-0.12-1.469-0.224c-0.4-0.111-0.721-0.281-0.966-0.52
	c-0.24-0.23-0.417-0.544-0.524-0.925c-0.11-0.392-0.164-0.875-0.164-1.466c0-0.525,0.043-0.979,0.132-1.364
	c0.088-0.388,0.236-0.709,0.441-0.972c0.207-0.261,0.482-0.47,0.82-0.61c0.332-0.146,0.751-0.249,1.25-0.313
	c0.332-0.041,0.865-0.087,1.609-0.128c0.738-0.043,1.669-0.063,2.788-0.063c0.591,0,1.125,0.003,1.594,0.006
	c0.47,0.005,0.891,0.03,1.26,0.075c0.366,0.044,0.689,0.104,0.973,0.184c0.277,0.078,0.521,0.199,0.728,0.36
	c0.229,0.173,0.406,0.356,0.536,0.547c0.129,0.192,0.226,0.403,0.288,0.625c0.062,0.226,0.103,0.47,0.122,0.733
	c0.023,0.265,0.032,0.547,0.032,0.855h-3.092V73.17z"/>
<rect x="104.807" y="69.895" fill="#E61E26" width="3.398" height="10.711"/>
<polygon fill="#E61E26" points="124.656,69.895 124.656,80.605 119.681,80.605 113.505,72.561 113.505,80.605 110.549,80.605 
	110.549,69.895 115.522,69.895 121.698,77.922 121.698,69.895 "/>
<path fill="#E61E26" d="M133.558,76.59v-2.039h7.009c-0.009,0.826-0.019,1.551-0.02,2.168c-0.007,0.621-0.04,1.16-0.093,1.613
	c-0.058,0.454-0.163,0.835-0.316,1.143c-0.153,0.305-0.383,0.551-0.685,0.735c-0.3,0.19-0.696,0.321-1.194,0.396
	c-0.494,0.078-1.118,0.111-1.863,0.111c-0.328,0-0.659-0.005-0.989-0.009c-0.332-0.006-0.657-0.007-0.973-0.007h-0.954
	c-1.132,0-2.095-0.031-2.889-0.096c-0.793-0.067-1.44-0.246-1.939-0.547c-0.5-0.302-0.865-0.756-1.091-1.365
	c-0.224-0.61-0.338-1.463-0.338-2.551c0-0.334,0.014-0.783,0.036-1.345c0.019-0.56,0.048-1.231,0.087-2.016
	c0.013-0.341,0.084-0.673,0.215-0.995c0.134-0.321,0.307-0.604,0.515-0.852c0.21-0.246,0.449-0.451,0.721-0.617
	c0.271-0.168,0.559-0.271,0.869-0.313c0.611-0.087,1.223-0.144,1.838-0.177c0.616-0.032,1.224-0.049,1.84-0.049h2.229
	c0.662,0,1.247,0.021,1.758,0.063c0.512,0.041,0.949,0.113,1.319,0.218c0.368,0.103,0.675,0.254,0.92,0.461
	c0.236,0.187,0.418,0.396,0.55,0.605c0.133,0.216,0.232,0.446,0.293,0.691c0.062,0.244,0.098,0.515,0.115,0.803
	c0.019,0.293,0.025,0.597,0.025,0.93h-3.054c-0.019-0.273-0.061-0.492-0.122-0.648s-0.172-0.27-0.331-0.354
	c-0.156-0.078-0.378-0.13-0.659-0.147c-0.28-0.021-0.641-0.033-1.079-0.033h-0.782c-0.276,0-0.548-0.006-0.816-0.01
	c-0.265-0.008-0.509-0.01-0.733-0.01c-0.512,0-0.934,0.01-1.266,0.027c-0.334,0.014-0.601,0.1-0.804,0.247
	c-0.208,0.149-0.349,0.394-0.432,0.731c-0.08,0.332-0.122,0.826-0.122,1.467c0,0.591,0.015,1.082,0.039,1.48
	c0.027,0.396,0.083,0.719,0.178,0.963c0.09,0.246,0.23,0.432,0.413,0.553c0.184,0.125,0.433,0.207,0.743,0.265
	c0.313,0.058,0.7,0.082,1.166,0.082h1.694h1.289c0.367,0,0.673-0.04,0.922-0.114c0.241-0.074,0.422-0.201,0.543-0.376
	c0.113-0.179,0.174-0.444,0.174-0.795c0-0.063,0-0.112-0.005-0.146c-0.006-0.032-0.01-0.08-0.01-0.146h-3.941V76.59z"/>
<path fill="#E61E26" d="M156.538,73.667c-0.011-0.327-0.058-0.581-0.14-0.749c-0.086-0.173-0.244-0.295-0.475-0.374
	c-0.23-0.077-0.551-0.112-0.979-0.123c-0.426-0.001-0.983-0.004-1.676-0.004c-0.785,0-1.416,0.004-1.899,0.022
	c-0.481,0.018-0.858,0.091-1.134,0.233c-0.271,0.138-0.454,0.371-0.553,0.698c-0.089,0.328-0.137,0.801-0.137,1.419
	c0,0.795,0.023,1.408,0.07,1.841c0.045,0.434,0.188,0.752,0.421,0.961c0.237,0.213,0.603,0.334,1.095,0.369
	c0.49,0.038,1.18,0.061,2.061,0.061h1.649c0.438,0,0.788-0.045,1.046-0.131c0.254-0.084,0.438-0.229,0.547-0.441
	c0.113-0.208,0.166-0.52,0.166-0.939h3.144c0,0.088,0.002,0.163,0.009,0.235c0.002,0.069,0.005,0.146,0.005,0.229
	c0,0.547-0.03,1.032-0.1,1.447c-0.068,0.417-0.185,0.77-0.354,1.061c-0.166,0.289-0.393,0.519-0.678,0.69
	c-0.281,0.175-0.632,0.278-1.052,0.319c-0.681,0.074-1.321,0.134-1.923,0.17c-0.603,0.038-1.153,0.056-1.658,0.056
	c-1.645,0-3.182-0.047-4.604-0.147c-0.56-0.03-1.025-0.152-1.416-0.364c-0.388-0.217-0.703-0.529-0.94-0.938
	c-0.242-0.414-0.417-0.93-0.526-1.555c-0.111-0.621-0.164-1.359-0.164-2.229c0-0.545,0.002-1.045,0.01-1.504
	c0.015-0.455,0.055-0.871,0.123-1.252c0.065-0.381,0.168-0.729,0.313-1.039c0.142-0.321,0.343-0.604,0.604-0.863
	c0.263-0.258,0.568-0.455,0.918-0.594c0.352-0.139,0.764-0.24,1.235-0.308c0.47-0.061,1.007-0.1,1.603-0.116
	c0.596-0.02,1.267-0.024,2.012-0.024c1.291,0,2.352,0.024,3.184,0.081c0.832,0.053,1.486,0.199,1.969,0.447
	c0.483,0.25,0.82,0.633,1.011,1.155c0.187,0.523,0.284,1.261,0.297,2.199H156.538z"/>
<path fill="#E61E26" d="M161.997,76.27c0-1.016,0.014-1.889,0.037-2.625c0.024-0.735,0.12-1.35,0.288-1.854
	c0.164-0.502,0.429-0.901,0.783-1.196c0.357-0.292,0.867-0.506,1.53-0.634c0.452-0.087,1.277-0.134,2.472-0.151
	c1.189-0.019,2.754-0.023,4.684-0.023c0.636,0,1.188,0.059,1.646,0.176c0.463,0.118,0.853,0.305,1.166,0.555
	c0.319,0.252,0.57,0.584,0.748,0.987c0.184,0.404,0.311,0.901,0.381,1.478c0.039,0.304,0.061,0.688,0.066,1.175
	c0.006,0.479,0.008,1.046,0.008,1.682c0,0.785-0.047,1.444-0.139,1.985c-0.09,0.542-0.242,0.992-0.466,1.354
	c-0.22,0.367-0.519,0.648-0.882,0.854c-0.368,0.203-0.829,0.354-1.381,0.459c-0.556,0.098-1.207,0.164-1.955,0.189
	c-0.748,0.027-1.625,0.042-2.618,0.042c-1.127,0-2.097-0.032-2.897-0.104c-0.808-0.067-1.465-0.249-1.979-0.547
	c-0.516-0.295-0.889-0.734-1.133-1.33C162.119,78.145,161.997,77.32,161.997,76.27 M165.123,74.791c0,0.546,0.007,1.01,0.021,1.382
	c0.017,0.376,0.054,0.687,0.125,0.933c0.063,0.248,0.164,0.435,0.297,0.561c0.139,0.13,0.328,0.227,0.576,0.294
	c0.244,0.063,0.549,0.103,0.92,0.108c0.367,0.014,0.813,0.017,1.33,0.017c1.053,0,1.865-0.015,2.448-0.041
	c0.586-0.022,1.015-0.131,1.294-0.313c0.271-0.181,0.442-0.478,0.506-0.892c0.06-0.407,0.09-0.999,0.09-1.758
	c0-0.62-0.03-1.108-0.086-1.468c-0.054-0.36-0.174-0.629-0.354-0.805c-0.181-0.173-0.447-0.287-0.8-0.326
	c-0.352-0.045-0.821-0.065-1.402-0.065h-2.564c-0.655,0-1.158,0.067-1.512,0.202c-0.351,0.13-0.59,0.363-0.707,0.695
	C165.186,73.646,165.123,74.141,165.123,74.791"/>
<rect x="177.975" y="77.617" fill="#E61E26" width="3.334" height="2.988"/>
<polygon fill="#E61E26" points="208.064,69.895 203.757,80.605 199.441,80.605 197.124,73.008 194.712,80.605 190.443,80.605 
	186.195,69.895 189.471,69.895 192.505,78.021 195.247,69.895 199.081,69.895 201.678,78.021 204.826,69.895 "/>
<rect x="209.357" y="77.617" fill="#E61E26" width="3.336" height="2.988"/>
<polygon fill="#E61E26" points="217.884,69.895 217.884,77.938 225.045,77.938 225.045,80.605 214.48,80.605 214.48,69.895 "/>
<rect x="226.387" y="77.617" fill="#E61E26" width="3.331" height="2.988"/>
<polygon fill="#E61E26" points="234.909,69.895 234.909,77.938 242.052,77.938 242.052,80.605 231.509,80.605 231.509,69.895 "/>
<rect x="243.414" y="77.617" fill="#E61E26" width="3.334" height="2.988"/>
<path fill="#6D6F71" d="M193.141,28.42c-48.236-12.029-101.833-1.055-101.833-1.055C14.136,42.348,2.557,69.783,2.557,69.783h24.44
	c3-5.065,8.361-9.918,8.361-9.918c7.098,2.266,17.362-2.955,17.362-2.955c13.054-6.646,10.505-13.086,10.505-13.086
	C130.111,17.659,193.141,28.42,193.141,28.42 M49.87,55.646c-7.025,2.985-13.709,3.151-14.931,0.367
	c-1.222-2.784,3.482-7.466,10.502-10.453c7.025-2.993,13.706-3.156,14.931-0.372C61.597,47.976,56.895,52.655,49.87,55.646"/>
<path fill="#6D6F71" d="M139.497,20.03c0,0,25.481-22.316,86.419-9.97c0,0-46.374-5.382-72.966,9.97H139.497z"/>
<path fill="#6D6F71" d="M120.345,20.981c0,0,27.225-13.612,55.793-16.779c0,0,27.619-3.362,58.086,5.9
	c0,0-19.863-5.108-46.056-5.424c0,0-18.123,0.08-34.192,6.332c0,0-7.752,2.533-18.12,9.021h-3.248c0,0,5.226-3.403,11.555-6.173
	c0,0,0.893-0.397,0.664-0.671c0,0-0.128-0.317-1.003,0c0,0-7.336,2.336-19.365,7.795H120.345z"/>
</svg>
